/* XPM */
static char *cbe0abb80c864d54f3a4a879a561cba6f5PcAnI8SKyeFgKa[] = {
/* columns rows colors chars-per-pixel */
"24 24 2 1 ",
"  c None",
". c white",
/* pixels */
"                        ",
"                        ",
"                        ",
"                   ..   ",
"              .......   ",
"         ............   ",
"       ..............   ",
"       .......     ..   ",
"       ..          ..   ",
"       ..          ..   ",
"       ..          ..   ",
"       ..          ..   ",
"       ..       .....   ",
"       ..      ......   ",
"    .....     .......   ",
"   ......     .......   ",
"  .......     .......   ",
"  .......      .....    ",
"  .......       ...     ",
"   .....                ",
"    ...                 ",
"                        ",
"                        ",
"                        "
};
