/* XPM */
static char *aa2159c6cfb34df98f8f67bce02542cb96s2QHXPxa8PgVDx[] = {
/* columns rows colors chars-per-pixel */
"24 24 2 1 ",
"  c None",
". c white",
/* pixels */
"                        ",
"                        ",
"                        ",
"              .         ",
"           .  ...       ",
"          ..   ...      ",
"         ...    ...     ",
"        ....     ...    ",
"       .....  .   ..    ",
"   .........  ..   ..   ",
"   .........  ..   ..   ",
"   .........  ..   ..   ",
"   .........  ..   ..   ",
"   .........  ..   ..   ",
"   .........  ..   ..   ",
"       .....  .   ..    ",
"        ....     ...    ",
"         ...    ...     ",
"          ..   ...      ",
"           .  ...       ",
"              .         ",
"                        ",
"                        ",
"                        "
};
