/* XPM */
static char *_71891eb33ef4bf4fa58f133d9f44e1dbhIKKlmoWxm7bWOq[] = {
/* columns rows colors chars-per-pixel */
"24 24 2 1 ",
"  c None",
". c white",
/* pixels */
"                        ",
"                        ",
"                        ",
"                        ",
"                        ",
"          ....          ",
"        ........        ",
"       ...    ...       ",
"      ..        ..      ",
"    ....        ..      ",
"  .....          .      ",
"  ..             ....   ",
" ..              .....  ",
" ..                 ... ",
" ..                  .. ",
" ..                  .. ",
"  ..                ... ",
"  ....................  ",
"    .................   ",
"                        ",
"                        ",
"                        ",
"                        ",
"                        "
};
