/* XPM */
static char *_147f59c8c954cae880f619ce30d5981dOEnjOfWUz0eVHVC[] = {
/* columns rows colors chars-per-pixel */
"24 24 2 1 ",
"  c None",
". c white",
/* pixels */
"                        ",
"                        ",
"             ..         ",
"     ..      ..         ",
"     .                  ",
"        .....           ",
"       .......          ",
"      ...   ...         ",
"     ...     ...        ",
"     ..       ..  ..    ",
"  .  ..   ......  .     ",
" ..  .. ........        ",
"     .....    ...       ",
"      ...      ..       ",
"    ....        ..      ",
"   .....        ..      ",
"  ...           .....   ",
"  ..            ......  ",
"  ..                ..  ",
"  ...               ..  ",
"   ...................  ",
"    .................   ",
"                        ",
"                        "
};
