/* XPM */
static char *_feb0635816940629ed92698060a4ed3fPTzrSxALsS1IS1b[] = {
/* columns rows colors chars-per-pixel */
"24 24 2 1 ",
"  c None",
". c white",
/* pixels */
"                        ",
"                        ",
"                        ",
"           ..           ",
"          ....          ",
"                        ",
"                        ",
"    ...   ....   ...    ",
"    ..  ........  ..    ",
"        ..    ..  .     ",
"       ..      ..       ",
"       ..      ..       ",
"       ..      ..       ",
"       ..      ..       ",
"        ..    ..  .     ",
"    ..  ........  ..    ",
"    ...   ....   ...    ",
"                        ",
"                        ",
"          ....          ",
"           ..           ",
"                        ",
"                        ",
"                        "
};
