/* XPM */
static char *e6ad2886e9444a5a97a65c97ad59338cJpvo9RrWZGQzqLav[] = {
/* columns rows colors chars-per-pixel */
"24 24 2 1 ",
"  c None",
". c white",
/* pixels */
"                        ",
"                        ",
"                        ",
"           ..           ",
"          ....          ",
"                        ",
"                        ",
"    ...   ....     ..   ",
"    ..  ........   ..   ",
"        ..    ..   ..   ",
"       ..      ..  ..   ",
"       ..      ..  ..   ",
"       ..      ..  ..   ",
"       ..      ..       ",
"        ..    ..        ",
"    ..  ........   ..   ",
"    ...   ....     ..   ",
"                        ",
"                        ",
"          ....          ",
"           ..           ",
"                        ",
"                        ",
"                        "
};
