/* XPM */
static char *e8e2a15ee6794f89e3a8a9e0d081c918GMTJE4hA2a1n1aTA[] = {
/* columns rows colors chars-per-pixel */
"24 24 2 1 ",
"  c None",
". c white",
/* pixels */
"                        ",
"                        ",
"          ....          ",
"        ........        ",
"       ...    ...       ",
"      ..       ...      ",
"    ....        ..      ",
"  .....          .      ",
"  ..             ....   ",
" ..              .....  ",
" ..                 ... ",
" ..                  .. ",
" ..        ..        .. ",
"  ..      ....      ... ",
"  .....  ......  .....  ",
"    ...  ..  ..  ....   ",
"        ..    ..        ",
"        ..    ..        ",
"        ..    ..        ",
"        ...  ...        ",
"         ......         ",
"          ....          ",
"                        ",
"                        "
};
